<svg id="图层_1" data-name="图层 1" xmlns="http://www.w3.org/2000/svg" xmlns:xlink="http://www.w3.org/1999/xlink" viewBox="0 0 100 100"><defs><style>.cls-1{fill:url(#未命名的渐变_32);}</style><linearGradient id="未命名的渐变_32" x1="49.78" y1="88.38" x2="49.78" y2="12.65" gradientUnits="userSpaceOnUse"><stop offset="0" stop-color="#6d9931"/><stop offset="1" stop-color="#96c041"/></linearGradient></defs><title>logo</title><path class="cls-1" d="M97,50.49q0,17.57,0,35.14c0,.63,0,1.27-.06,1.9a.86.86,0,0,1-.83.81c-.37,0-.74,0-1.11,0H75.53c-.37,0-.74,0-1.11,0a.88.88,0,0,1-.84-.8c0-.26,0-.53-.05-.79,0-.53,0-1.06,0-1.58q0-23,0-45.91c0-.58,0-1.16,0-1.74a.3.3,0,0,0-.18-.21.32.32,0,0,0-.27.09c-.83,1-1.65,1.92-2.46,2.89q-2.07,2.5-4.12,5l-4.2,5.15-4.11,5q-3.35,4.1-6.71,8.21c-1.77,2.16-3.57,4.3-5.35,6.46-1.38,1.67-2.73,3.35-4.1,5l-4.11,5-5.41,6.61c-.3.37-.63.71-1,1.06a1.61,1.61,0,0,1-1.13.51c-.42,0-.84,0-1.27,0H4.28c-.42,0-.84,0-1.26-.06s-.58-.44-.31-.81l.19-.25,4.41-5.39L12,76.11l3.92-4.77,4.7-5.76,3.82-4.64,3.11-3.79,5.31-6.5q3.35-4.11,6.71-8.21c1.74-2.12,3.5-4.22,5.25-6.34,1.51-1.83,3-3.68,4.5-5.52l4-4.89,4.6-5.64,3.92-4.77c.4-.49.79-1,1.2-1.47.2-.24.43-.46.65-.69a1.48,1.48,0,0,1,1-.45c.42,0,.84,0,1.27,0H94.78c.47,0,.95,0,1.42.07a.83.83,0,0,1,.72.73,5.19,5.19,0,0,1,.06.63c0,.53,0,1.06,0,1.58q0,17.41,0,34.83Z"/></svg>